<svg width="16" height="19" viewBox="0 0 16 19" fill="none" xmlns="http://www.w3.org/2000/svg">
<g clip-path="url(#clip0_294_15)">
<path d="M3.36742 1.15298V2.30595H1.68371C0.754162 2.30595 0 3.08061 0 4.03542V5.76488H15.7146V4.03542C15.7146 3.08061 14.9605 2.30595 14.0309 2.30595H12.3472V1.15298C12.3472 0.515236 11.8456 0 11.2247 0C10.6039 0 10.1023 0.515236 10.1023 1.15298V2.30595H5.61237V1.15298C5.61237 0.515236 5.11076 0 4.4899 0C3.86903 0 3.36742 0.515236 3.36742 1.15298ZM15.7146 6.91786H0V16.7182C0 17.673 0.754162 18.4476 1.68371 18.4476H14.0309C14.9605 18.4476 15.7146 17.673 15.7146 16.7182V6.91786Z" fill="url(#paint0_linear_294_15)"/>
</g>
<defs>
<linearGradient id="paint0_linear_294_15" x1="15.0306" y1="2.75633" x2="-0.409599" y2="18.0337" gradientUnits="userSpaceOnUse">
<stop stop-color="#68AC78"/>
<stop offset="1" stop-color="#88E59E"/>
</linearGradient>
<clipPath id="clip0_294_15">
<rect width="15.7146" height="18.4476" fill="white"/>
</clipPath>
</defs>
</svg>
