<svg width="24" height="24" viewBox="0 0 24 24" fill="none" xmlns="http://www.w3.org/2000/svg">
<g clip-path="url(#clip0_114_144)">
<path d="M22.9519 1.56217C21.8689 0.979013 20.661 2.10367 19.9529 2.77013C18.3284 4.35298 16.9538 6.18575 15.4126 7.85191C13.7048 9.68468 12.1219 11.5175 10.3725 13.3086C9.37277 14.3083 8.28977 15.3913 7.6233 16.6409C6.12376 15.183 4.83249 13.6001 3.16634 12.3089C1.95837 11.3926 -0.0410133 10.7261 0.000640602 12.9338C0.0839484 15.8079 2.62484 18.8903 4.49926 20.848C5.29069 21.6811 6.33203 22.5558 7.54 22.5975C8.99788 22.6808 10.4974 20.9313 11.3722 19.9733C12.9134 18.3071 14.163 16.4326 15.5792 14.7249C17.412 12.4756 19.2864 10.2678 21.0775 7.97687C22.2022 6.56064 25.7428 3.06164 22.9519 1.56217ZM1.83334 12.7671C1.79169 12.7671 1.75004 12.7671 1.66673 12.8087C1.50011 12.7671 1.37515 12.7254 1.20854 12.6421C1.3335 12.5588 1.54177 12.6005 1.83334 12.7671Z" fill="#68AC78"/>
</g>
<defs>
<clipPath id="clip0_114_144">
<rect width="24" height="24" fill="white"/>
</clipPath>
</defs>
</svg>
