<svg width="18" height="18" viewBox="0 0 18 18" fill="none" xmlns="http://www.w3.org/2000/svg">
<path d="M16.583 0.33316C16.8932 0.33316 17.1513 0.436121 17.3573 0.642041C17.5632 0.847961 17.6661 1.10605 17.6661 1.41632C17.6661 1.72104 17.5618 1.97775 17.3531 2.18644L10.5312 8.99948L17.3531 15.8125C17.5618 16.0212 17.6661 16.2779 17.6661 16.5826C17.6661 16.8929 17.5632 17.151 17.3573 17.3569C17.1513 17.5628 16.8932 17.6658 16.583 17.6658C16.2783 17.6658 16.0216 17.5615 15.8129 17.3528L8.99982 10.5309L2.18678 17.3528C1.97808 17.5615 1.72138 17.6658 1.41666 17.6658C1.10639 17.6658 0.848296 17.5628 0.642376 17.3569C0.436456 17.151 0.333496 16.8929 0.333496 16.5826C0.333496 16.2779 0.437843 16.0212 0.646536 15.8125L7.46842 8.99948L0.646536 2.18644C0.437843 1.97775 0.333496 1.72104 0.333496 1.41632C0.333496 1.10605 0.436456 0.847961 0.642376 0.642041C0.848296 0.436121 1.10639 0.33316 1.41666 0.33316C1.72138 0.33316 1.97808 0.437507 2.18678 0.646201L8.99982 7.46808L15.8129 0.646201C16.0216 0.437507 16.2783 0.33316 16.583 0.33316Z" fill="#FF1313"/>
</svg>
