<svg width="57" height="54" viewBox="0 0 57 54" fill="none" xmlns="http://www.w3.org/2000/svg">
<g opacity="0.75" clip-path="url(#clip0_294_13)">
<path d="M10.1472 6.21161C10.7609 4.15402 12.9282 2.98254 14.9857 3.59621L22.4397 5.81933C24.4973 6.433 25.6687 8.60026 25.0551 10.6578L24.6845 11.9002L39.5924 16.3464L39.9629 15.1041C40.5766 13.0465 42.7438 11.875 44.8014 12.4887L52.2553 14.7118C54.3129 15.3255 55.4844 17.4927 54.8707 19.5503L52.6476 27.0042C52.0339 29.0618 49.8667 30.2333 47.8091 29.6196L40.3552 27.3965C38.2976 26.7828 37.1261 24.6156 37.7398 22.558L38.1103 21.3157L23.2025 16.8694L22.8319 18.1118C22.7926 18.2438 22.7454 18.3734 22.6929 18.493L26.4499 28.6606L33.9038 30.8837C35.9614 31.4974 37.1329 33.6646 36.5192 35.7222L34.2961 43.1761C33.6824 45.2337 31.5152 46.4052 29.4576 45.7915L22.0037 43.5684C19.9461 42.9548 18.7746 40.7875 19.3883 38.7299L21.6114 31.276C21.6507 31.144 21.6979 31.0143 21.7505 30.8947L17.9934 20.7272L10.5395 18.504C8.48192 17.8904 7.31044 15.7231 7.92411 13.6655L10.1472 6.21161Z" fill="url(#paint0_linear_294_13)"/>
</g>
<defs>
<linearGradient id="paint0_linear_294_13" x1="50.7878" y1="10.7981" x2="2.15971" y2="29.6477" gradientUnits="userSpaceOnUse">
<stop stop-color="#68AC78"/>
<stop offset="1" stop-color="#7EEA98"/>
</linearGradient>
<clipPath id="clip0_294_13">
<rect width="46.6702" height="41.4847" fill="white" transform="translate(12) rotate(16.6071)"/>
</clipPath>
</defs>
</svg>
