<svg width="12" height="20" viewBox="0 0 12 20" fill="none" xmlns="http://www.w3.org/2000/svg">
<g clip-path="url(#clip0_294_23)">
<path d="M5.99966 0C6.66341 0 7.19966 0.558594 7.19966 1.25V2.64453C7.25966 2.65234 7.31591 2.66016 7.37591 2.67188C7.39091 2.67578 7.40216 2.67578 7.41716 2.67969L9.21716 3.02344C9.86966 3.14844 10.3009 3.80078 10.1809 4.47656C10.0609 5.15234 9.43466 5.60547 8.78591 5.48047L7.00466 5.14063C5.83091 4.96094 4.79591 5.08203 4.06841 5.38281C3.34091 5.68359 3.04841 6.09766 2.98091 6.48047C2.90591 6.89844 2.96216 7.13281 3.02591 7.27734C3.09341 7.42969 3.23216 7.60156 3.50591 7.79297C4.11716 8.21094 5.05466 8.48438 6.26966 8.82031L6.37841 8.85156C7.45091 9.14844 8.76341 9.50781 9.73841 10.1719C10.2709 10.5352 10.7734 11.0273 11.0847 11.7148C11.4034 12.4141 11.4709 13.1953 11.3247 14.0273C11.0659 15.5117 10.0834 16.5039 8.86466 17.0234C8.35091 17.2422 7.79216 17.3828 7.19966 17.4531V18.7578C7.19966 19.4492 6.66341 20.0078 5.99966 20.0078C5.33591 20.0078 4.79966 19.4492 4.79966 18.7578V17.3945C4.78466 17.3906 4.76591 17.3906 4.75091 17.3867H4.74341C3.82841 17.2383 2.32466 16.8281 1.31216 16.3594C0.708414 16.0781 0.434664 15.3398 0.704664 14.7109C0.974664 14.082 1.68341 13.7969 2.28716 14.0781C3.07091 14.4414 4.36091 14.8008 5.10716 14.9219C6.30341 15.1055 7.28966 15 7.95716 14.7148C8.59091 14.4453 8.87966 14.0547 8.96216 13.5859C9.03341 13.1719 8.97716 12.9336 8.91341 12.7891C8.84216 12.6328 8.70341 12.4609 8.42591 12.2695C7.81091 11.8516 6.86966 11.5781 5.65091 11.2422L5.54591 11.2148C4.47716 10.9102 3.16466 10.5469 2.18966 9.88281C1.65716 9.51953 1.15841 9.02344 0.847164 8.33594C0.532164 7.63672 0.468414 6.85547 0.618414 6.02344C0.888414 4.53125 1.96091 3.5625 3.17966 3.05859C3.67841 2.85156 4.22591 2.71094 4.79966 2.62891V1.25C4.79966 0.558594 5.33591 0 5.99966 0Z" fill="url(#paint0_linear_294_23)"/>
</g>
<defs>
<linearGradient id="paint0_linear_294_23" x1="10.9301" y1="-1.85718e-07" x2="0.354693" y2="19.6557" gradientUnits="userSpaceOnUse">
<stop stop-color="#042924"/>
<stop offset="1" stop-color="#23776B"/>
</linearGradient>
<clipPath id="clip0_294_23">
<rect width="12" height="20" fill="white"/>
</clipPath>
</defs>
</svg>
