<svg width="28" height="25" viewBox="0 0 28 25" fill="none" xmlns="http://www.w3.org/2000/svg">
<g clip-path="url(#clip0_119_162)">
<path d="M13.9998 1.5625C10.072 1.5625 6.92684 3.35938 4.63726 5.49805C2.36226 7.61719 0.840733 10.1562 0.121289 11.8994C-0.0391276 12.2852 -0.0391276 12.7148 0.121289 13.1006C0.840733 14.8437 2.36226 17.3828 4.63726 19.502C6.92684 21.6406 10.072 23.4375 13.9998 23.4375C17.9275 23.4375 21.0727 21.6406 23.3623 19.502C25.6373 17.3779 27.1588 14.8437 27.8831 13.1006C28.0435 12.7148 28.0435 12.2852 27.8831 11.8994C27.1588 10.1562 25.6373 7.61719 23.3623 5.49805C21.0727 3.35938 17.9275 1.5625 13.9998 1.5625ZM6.99976 12.5C6.99976 10.6352 7.73726 8.84677 9.05001 7.52816C10.3628 6.20954 12.1432 5.46875 13.9998 5.46875C15.8563 5.46875 17.6368 6.20954 18.9495 7.52816C20.2623 8.84677 20.9998 10.6352 20.9998 12.5C20.9998 14.3648 20.2623 16.1532 18.9495 17.4718C17.6368 18.7905 15.8563 19.5312 13.9998 19.5312C12.1432 19.5312 10.3628 18.7905 9.05001 17.4718C7.73726 16.1532 6.99976 14.3648 6.99976 12.5ZM13.9998 9.375C13.9998 11.0986 12.6046 12.5 10.8886 12.5C10.5435 12.5 10.213 12.4414 9.90184 12.3389C9.63448 12.251 9.32337 12.417 9.33309 12.7002C9.34768 13.0371 9.39629 13.374 9.48865 13.7109C10.1546 16.2109 12.7164 17.6953 15.2053 17.0264C17.6942 16.3574 19.172 13.7842 18.506 11.2842C17.9664 9.25781 16.1824 7.89551 14.1991 7.8125C13.9171 7.80273 13.7518 8.11035 13.8393 8.38379C13.9414 8.69629 13.9998 9.02832 13.9998 9.375Z" fill="white"/>
</g>
<defs>
<clipPath id="clip0_119_162">
<rect width="28" height="25" fill="white"/>
</clipPath>
</defs>
</svg>
