<svg width="19" height="21" viewBox="0 0 19 21" fill="none" xmlns="http://www.w3.org/2000/svg">
<g clip-path="url(#clip0_294_33)">
<path d="M1.35714 0C2.10781 0 2.71429 0.586523 2.71429 1.3125V1.96875L5.64063 1.26328C7.25647 0.873633 8.96138 1.0541 10.4542 1.77598C12.4179 2.72754 14.7292 2.72754 16.6929 1.77598L17.1 1.5791C17.9737 1.15254 19 1.76777 19 2.71113V14.1832C19 14.7287 18.648 15.2209 18.1179 15.4137L16.6462 15.9469C14.6868 16.6564 12.5069 16.5457 10.6366 15.6434C9.02924 14.8641 7.18862 14.6713 5.4413 15.0938L2.71429 15.75V19.6875C2.71429 20.4135 2.10781 21 1.35714 21C0.606473 21 0 20.4135 0 19.6875L0 16.4063L0 13.6992L0 2.625L0 1.3125C0 0.586523 0.606473 0 1.35714 0ZM2.71429 7.67402L5.42857 7.10391L5.42857 9.79043L2.71429 10.3605L2.71429 13.043L4.78393 12.5426C5.00022 12.4893 5.21228 12.4441 5.42857 12.4072V9.78633L7.07835 9.4418C7.43036 9.36797 7.78661 9.33926 8.14286 9.35566V6.73066C8.71964 6.74707 9.29643 6.83731 9.85625 6.99316L10.8571 7.27617V10.0119L9.08862 9.50742C8.77902 9.42129 8.46094 9.36797 8.14286 9.35156V12.2801C9.06741 12.358 9.97924 12.5549 10.8571 12.8707V10.0078L11.8199 10.2826C12.3924 10.4467 12.9777 10.5451 13.5714 10.5861V7.95293C13.2406 7.92012 12.9098 7.85859 12.5875 7.76836L10.8571 7.27617V4.7332C10.3058 4.57734 9.76295 4.37227 9.23705 4.11797C8.88929 3.9498 8.52031 3.83086 8.14286 3.75703V6.72656C7.59152 6.71016 7.04018 6.75938 6.50156 6.87422L5.42857 7.10391V4.01953L2.71429 4.67578V7.67402ZM13.5714 13.7689C14.2839 13.8305 15.0092 13.7402 15.692 13.49L16.2857 13.2768V10.3359L15.9507 10.4098C15.1703 10.5861 14.3688 10.6436 13.5714 10.5943V13.7689ZM16.2857 7.64121V4.7373C15.3993 4.9875 14.4875 5.11055 13.5714 5.11055V7.95703C14.1609 8.01445 14.7589 7.97754 15.34 7.85039L16.2857 7.63711V7.64121Z" fill="white"/>
</g>
<defs>
<clipPath id="clip0_294_33">
<rect width="19" height="21" fill="white"/>
</clipPath>
</defs>
</svg>
