<svg width="34" height="27" viewBox="0 0 34 27" fill="none" xmlns="http://www.w3.org/2000/svg">
<path d="M17.1806 4.49297L12.0381 8.62734C11.1828 9.31289 11.0181 10.5469 11.6663 11.4275C12.3516 12.3662 13.685 12.5508 14.6041 11.8389L19.8794 7.76777C20.2513 7.48301 20.7825 7.54629 21.0747 7.91543C21.3669 8.28457 21.2978 8.81191 20.9259 9.10195L19.8156 9.95625L27.2 16.7062V6.75H27.1628L26.9556 6.61816L23.0987 4.16602C22.2859 3.64922 21.335 3.375 20.3681 3.375C19.21 3.375 18.0837 3.77051 17.1806 4.49297ZM18.3919 11.0531L15.6453 13.173C13.9719 14.4703 11.5441 14.1328 10.2903 12.4242C9.11094 10.8158 9.40844 8.56934 10.965 7.31953L15.385 3.77051C14.7688 3.51211 14.1047 3.38027 13.43 3.38027C12.4313 3.375 11.4591 3.67031 10.625 4.21875L6.8 6.75V18.5625H8.29813L13.1538 22.9605C14.195 23.9045 15.8047 23.8307 16.7556 22.7971C17.0478 22.4754 17.2444 22.101 17.3453 21.7107L18.2484 22.5334C19.2844 23.4773 20.8994 23.4088 21.8503 22.3805C22.0894 22.1221 22.2647 21.8215 22.3763 21.5103C23.4069 22.1959 24.8094 22.0535 25.6753 21.1148C26.6262 20.0865 26.5572 18.4834 25.5212 17.5395L18.3919 11.0531ZM0.85 6.75C0.3825 6.75 0 7.12969 0 7.59375V18.5625C0 19.4959 0.759687 20.25 1.7 20.25H3.4C4.34031 20.25 5.1 19.4959 5.1 18.5625V6.75H0.85ZM2.55 16.875C2.77543 16.875 2.99164 16.9639 3.15104 17.1221C3.31045 17.2804 3.4 17.495 3.4 17.7187C3.4 17.9425 3.31045 18.1571 3.15104 18.3154C2.99164 18.4736 2.77543 18.5625 2.55 18.5625C2.32457 18.5625 2.10837 18.4736 1.94896 18.3154C1.78955 18.1571 1.7 17.9425 1.7 17.7187C1.7 17.495 1.78955 17.2804 1.94896 17.1221C2.10837 16.9639 2.32457 16.875 2.55 16.875ZM28.9 6.75V18.5625C28.9 19.4959 29.6597 20.25 30.6 20.25H32.3C33.2403 20.25 34 19.4959 34 18.5625V7.59375C34 7.12969 33.6175 6.75 33.15 6.75H28.9ZM30.6 17.7187C30.6 17.495 30.6896 17.2804 30.849 17.1221C31.0084 16.9639 31.2246 16.875 31.45 16.875C31.6754 16.875 31.8916 16.9639 32.051 17.1221C32.2104 17.2804 32.3 17.495 32.3 17.7187C32.3 17.9425 32.2104 18.1571 32.051 18.3154C31.8916 18.4736 31.6754 18.5625 31.45 18.5625C31.2246 18.5625 31.0084 18.4736 30.849 18.3154C30.6896 18.1571 30.6 17.9425 30.6 17.7187Z" fill="white"/>
</svg>
