<svg width="29" height="29" viewBox="0 0 29 29" fill="none" xmlns="http://www.w3.org/2000/svg">
<path d="M5.71174 29H23.2875C24.0155 29 24.6057 28.4098 24.6057 27.6818V12.7424C24.6057 12.0144 24.0155 11.4242 23.2875 11.4242H21.9693V7.4697C21.9693 3.35091 18.6184 0 14.4996 0C10.3808 0 7.02992 3.35091 7.02992 7.4697V11.4242H5.71174C4.98375 11.4242 4.39355 12.0144 4.39355 12.7424V27.6818C4.39355 28.4098 4.98375 29 5.71174 29ZM15.8178 20.6503V22.4091C15.8178 23.1371 15.2276 23.7273 14.4996 23.7273C13.7716 23.7273 13.1814 23.1371 13.1814 22.4091V20.6503C12.6482 20.2491 12.3026 19.6112 12.3026 18.8939C12.3026 17.6825 13.2882 16.697 14.4996 16.697C15.711 16.697 16.6966 17.6825 16.6966 18.8939C16.6966 19.6112 16.351 20.2491 15.8178 20.6503ZM9.66628 7.4697C9.66628 4.8046 11.8345 2.63636 14.4996 2.63636C17.1647 2.63636 19.3329 4.8046 19.3329 7.4697V11.4242H9.66628V7.4697Z" fill="white"/>
</svg>
