<svg width="21" height="21" viewBox="0 0 21 21" fill="none" xmlns="http://www.w3.org/2000/svg">
<g clip-path="url(#clip0_294_69)">
<path d="M7.21875 0.984375C7.21875 0.438867 6.77988 0 6.23438 0C5.68887 0 5.25 0.438867 5.25 0.984375V2.625C3.80215 2.625 2.625 3.80215 2.625 5.25H0.984375C0.438867 5.25 0 5.68887 0 6.23438C0 6.77988 0.438867 7.21875 0.984375 7.21875H2.625V9.51562H0.984375C0.438867 9.51562 0 9.95449 0 10.5C0 11.0455 0.438867 11.4844 0.984375 11.4844H2.625V13.7812H0.984375C0.438867 13.7812 0 14.2201 0 14.7656C0 15.3111 0.438867 15.75 0.984375 15.75H2.625C2.625 17.1979 3.80215 18.375 5.25 18.375V20.0156C5.25 20.5611 5.68887 21 6.23438 21C6.77988 21 7.21875 20.5611 7.21875 20.0156V18.375H9.51562V20.0156C9.51562 20.5611 9.95449 21 10.5 21C11.0455 21 11.4844 20.5611 11.4844 20.0156V18.375H13.7812V20.0156C13.7812 20.5611 14.2201 21 14.7656 21C15.3111 21 15.75 20.5611 15.75 20.0156V18.375C17.1979 18.375 18.375 17.1979 18.375 15.75H20.0156C20.5611 15.75 21 15.3111 21 14.7656C21 14.2201 20.5611 13.7812 20.0156 13.7812H18.375V11.4844H20.0156C20.5611 11.4844 21 11.0455 21 10.5C21 9.95449 20.5611 9.51562 20.0156 9.51562H18.375V7.21875H20.0156C20.5611 7.21875 21 6.77988 21 6.23438C21 5.68887 20.5611 5.25 20.0156 5.25H18.375C18.375 3.80215 17.1979 2.625 15.75 2.625V0.984375C15.75 0.438867 15.3111 0 14.7656 0C14.2201 0 13.7812 0.438867 13.7812 0.984375V2.625H11.4844V0.984375C11.4844 0.438867 11.0455 0 10.5 0C9.95449 0 9.51562 0.438867 9.51562 0.984375V2.625H7.21875V0.984375ZM6.5625 5.25H14.4375C15.1635 5.25 15.75 5.83652 15.75 6.5625V14.4375C15.75 15.1635 15.1635 15.75 14.4375 15.75H6.5625C5.83652 15.75 5.25 15.1635 5.25 14.4375V6.5625C5.25 5.83652 5.83652 5.25 6.5625 5.25ZM14.4375 6.5625H6.5625V14.4375H14.4375V6.5625Z" fill="white"/>
</g>
<defs>
<clipPath id="clip0_294_69">
<rect width="21" height="21" fill="white"/>
</clipPath>
</defs>
</svg>
