<svg width="59" height="58" viewBox="0 0 59 58" fill="none" xmlns="http://www.w3.org/2000/svg">
<g clip-path="url(#clip0_150_208)">
<path d="M14.9139 7.21429C14.9139 3.23516 18.1491 0 22.1282 0H40.1639V14.4286C40.1639 16.4238 41.7759 18.0357 43.7711 18.0357H58.1996V50.5C58.1996 54.4791 54.9645 57.7143 50.9854 57.7143H22.1282C18.1491 57.7143 14.9139 54.4791 14.9139 50.5V37.875H34.539L30.1428 42.2712C29.0832 43.3308 29.0832 45.0442 30.1428 46.0925C31.2024 47.1409 32.9158 47.1521 33.9641 46.0925L42.982 37.0747C44.0416 36.0151 44.0416 34.3017 42.982 33.2533L33.9641 24.2355C32.9045 23.1759 31.1912 23.1759 30.1428 24.2355C29.0945 25.2951 29.0832 27.0085 30.1428 28.0568L34.539 32.453L14.9139 32.4643V7.21429ZM14.9139 32.4643V37.875H3.19071C1.69149 37.875 0.485352 36.6689 0.485352 35.1696C0.485352 33.6704 1.69149 32.4643 3.19071 32.4643H14.9139ZM58.1996 14.4286H43.7711V0L58.1996 14.4286Z" fill="url(#paint0_linear_150_208)"/>
</g>
<defs>
<linearGradient id="paint0_linear_150_208" x1="58.1996" y1="2.58003e-06" x2="14.9139" y2="54.8286" gradientUnits="userSpaceOnUse">
<stop stop-color="#042924"/>
<stop offset="1" stop-color="#0F5B51"/>
</linearGradient>
<clipPath id="clip0_150_208">
<rect width="57.7143" height="57.7143" fill="white" transform="translate(0.485352)"/>
</clipPath>
</defs>
</svg>
