<svg width="15" height="18" viewBox="0 0 15 18" fill="none" xmlns="http://www.w3.org/2000/svg">
<g clip-path="url(#clip0_294_79)">
<path d="M7.5 9C8.63664 9 9.72673 8.52589 10.5305 7.68198C11.3342 6.83807 11.7857 5.69347 11.7857 4.5C11.7857 3.30653 11.3342 2.16193 10.5305 1.31802C9.72673 0.474106 8.63664 0 7.5 0C6.36336 0 5.27327 0.474106 4.46954 1.31802C3.66581 2.16193 3.21429 3.30653 3.21429 4.5C3.21429 5.69347 3.66581 6.83807 4.46954 7.68198C5.27327 8.52589 6.36336 9 7.5 9ZM5.96987 10.6875C2.67188 10.6875 0 13.493 0 16.9559C0 17.5324 0.445313 18 0.99442 18H14.0056C14.5547 18 15 17.5324 15 16.9559C15 13.493 12.3281 10.6875 9.03013 10.6875H5.96987Z" fill="white"/>
</g>
<defs>
<clipPath id="clip0_294_79">
<rect width="15" height="18" fill="white"/>
</clipPath>
</defs>
</svg>
