<svg width="16" height="19" viewBox="0 0 16 19" fill="none" xmlns="http://www.w3.org/2000/svg"><g clip-path="url(#clip0_294_15)"><path d="M3.367 1.153v1.153H1.684C.754 2.306 0 3.081 0 4.036v1.729h15.715v-1.73c0-.954-.755-1.729-1.684-1.729h-1.684V1.153C12.347.515 11.846 0 11.225 0c-.621 0-1.123.515-1.123 1.153v1.153h-4.49V1.153C5.612.515 5.111 0 4.49 0c-.621 0-1.123.515-1.123 1.153zm12.348 5.765H0v9.8c0 .955.754 1.73 1.684 1.73H14.03c.93 0 1.684-.775 1.684-1.73v-9.8z" fill="url(#paint0_linear_294_15)"/></g><defs><linearGradient id="paint0_linear_294_15" x1="15.03" y1="2.76" x2="-.41" y2="18.03" gradientUnits="userSpaceOnUse"><stop stop-color="#68AC78"/><stop offset="1" stop-color="#88E59E"/></linearGradient><clipPath id="clip0_294_15"><path fill="#fff" d="M0 0h15.71v18.45H0z"/></clipPath></defs></svg>