<svg width="24" height="24" viewBox="0 0 24 24" fill="none" xmlns="http://www.w3.org/2000/svg"><g clip-path="url(#clip0_114_144)"><path d="M22.952 1.562c-1.083-.583-2.291.542-3 1.208-1.624 1.583-2.998 3.416-4.54 5.082-1.707 1.833-3.29 3.665-5.04 5.457-1 1-2.082 2.082-2.749 3.332-1.5-1.458-2.79-3.04-4.457-4.332-1.208-.916-3.207-1.583-3.165.625.083 2.874 2.624 5.956 4.498 7.914.792.833 1.833 1.708 3.041 1.75 1.458.083 2.957-1.667 3.832-2.625 1.541-1.666 2.791-3.54 4.207-5.248 1.833-2.25 3.707-4.457 5.498-6.748 1.125-1.416 4.666-4.915 1.875-6.415zM1.833 12.767c-.041 0-.083 0-.166.042a2.028 2.028 0 01-.458-.167c.124-.083.333-.041.624.125z" fill="#68AC78"/></g><defs><clipPath id="clip0_114_144"><path fill="#fff" d="M0 0h24v24H0z"/></clipPath></defs></svg>