<svg width="18" height="18" viewBox="0 0 18 18" fill="none" xmlns="http://www.w3.org/2000/svg"><path d="M16.583.333c.31 0 .568.103.774.309.206.206.31.464.31.774 0 .305-.105.562-.314.77L10.531 9l6.822 6.813c.209.21.313.466.313.77 0 .31-.103.569-.309.775a1.05 1.05 0 01-.774.309c-.305 0-.561-.105-.77-.313L9 10.53l-6.813 6.822a1.047 1.047 0 01-.77.313 1.05 1.05 0 01-.775-.31 1.05 1.05 0 01-.309-.773c0-.305.105-.562.314-.77l6.821-6.814L.647 2.186a1.047 1.047 0 01-.314-.77c0-.31.103-.568.31-.774a1.05 1.05 0 01.774-.309c.304 0 .561.105.77.313L9 7.468 15.813.646c.209-.208.465-.313.77-.313z" fill="#FF1313"/></svg>