<svg width="57" height="54" viewBox="0 0 57 54" fill="none" xmlns="http://www.w3.org/2000/svg"><g opacity=".75" clip-path="url(#clip0_294_13)"><path d="M10.147 6.212a3.89 3.89 0 014.839-2.616L22.44 5.82a3.89 3.89 0 012.615 4.839l-.37 1.242 14.907 4.446.37-1.242a3.89 3.89 0 014.84-2.615l7.453 2.223a3.89 3.89 0 012.616 4.838l-2.223 7.454a3.89 3.89 0 01-4.839 2.616l-7.454-2.224a3.89 3.89 0 01-2.615-4.838l.37-1.242-14.907-4.447-.371 1.243c-.04.132-.087.261-.14.381l3.758 10.168 7.454 2.223a3.89 3.89 0 012.615 4.838l-2.223 7.454a3.89 3.89 0 01-4.838 2.615l-7.454-2.223a3.89 3.89 0 01-2.616-4.838l2.223-7.454c.04-.132.087-.262.14-.381l-3.758-10.168-7.453-2.223a3.89 3.89 0 01-2.616-4.839l2.223-7.453z" fill="url(#paint0_linear_294_13)"/></g><defs><linearGradient id="paint0_linear_294_13" x1="50.79" y1="10.8" x2="2.16" y2="29.65" gradientUnits="userSpaceOnUse"><stop stop-color="#68AC78"/><stop offset="1" stop-color="#7EEA98"/></linearGradient><clipPath id="clip0_294_13"><path fill="#fff" transform="rotate(16.607 6 41.11)" d="M0 0h46.67v41.48H0z"/></clipPath></defs></svg>