<svg width="12" height="20" viewBox="0 0 12 20" fill="none" xmlns="http://www.w3.org/2000/svg"><g clip-path="url(#clip0_294_23)"><path d="M6 0c.663 0 1.2.559 1.2 1.25v1.395c.06.007.116.015.176.027.015.004.026.004.041.008l1.8.343c.653.125 1.084.778.964 1.454-.12.675-.746 1.128-1.395 1.003l-1.781-.34c-1.174-.18-2.21-.058-2.937.243-.727.3-1.02.715-1.087 1.097-.075.418-.019.653.045.797.067.153.206.325.48.516.611.418 1.549.691 2.764 1.027l.108.032c1.073.296 2.385.656 3.36 1.32.533.363 1.035.855 1.347 1.543.318.7.386 1.48.24 2.312-.26 1.485-1.242 2.477-2.46 2.996a6.058 6.058 0 01-1.665.43v1.305c0 .691-.537 1.25-1.2 1.25-.664 0-1.2-.559-1.2-1.25v-1.363c-.015-.004-.034-.004-.05-.008h-.007c-.915-.149-2.418-.559-3.43-1.028-.605-.28-.878-1.02-.608-1.648.27-.629.978-.914 1.582-.633.784.363 2.074.723 2.82.844 1.196.183 2.183.078 2.85-.207.634-.27.923-.66 1.005-1.13.071-.413.015-.651-.049-.796-.07-.156-.21-.328-.487-.52-.615-.417-1.556-.69-2.775-1.027l-.105-.027c-1.069-.305-2.381-.668-3.356-1.332-.533-.363-1.032-.86-1.343-1.547-.315-.7-.379-1.48-.229-2.313.27-1.492 1.343-2.46 2.562-2.964a6.71 6.71 0 011.62-.43V1.25C4.8.559 5.336 0 6 0z" fill="url(#paint0_linear_294_23)"/></g><defs><linearGradient id="paint0_linear_294_23" x1="10.93" y1="0" x2=".35" y2="19.66" gradientUnits="userSpaceOnUse"><stop stop-color="#042924"/><stop offset="1" stop-color="#23776B"/></linearGradient><clipPath id="clip0_294_23"><path fill="#fff" d="M0 0h12v20H0z"/></clipPath></defs></svg>