<svg width="28" height="25" viewBox="0 0 28 25" fill="none" xmlns="http://www.w3.org/2000/svg"><g clip-path="url(#clip0_119_162)"><path d="M14 1.563c-3.928 0-7.073 1.796-9.363 3.935C2.362 7.618.841 10.156.121 11.899a1.56 1.56 0 000 1.202c.72 1.743 2.241 4.282 4.516 6.401 2.29 2.139 5.435 3.936 9.363 3.936 3.927 0 7.073-1.797 9.362-3.936 2.275-2.124 3.797-4.658 4.521-6.401a1.56 1.56 0 000-1.202c-.724-1.743-2.246-4.282-4.52-6.4-2.29-2.14-5.436-3.936-9.363-3.936zM7 12.5c0-1.865.737-3.653 2.05-4.972A6.984 6.984 0 0114 5.468c1.856 0 3.637.742 4.95 2.06A7.047 7.047 0 0121 12.5a7.047 7.047 0 01-2.05 4.972 6.984 6.984 0 01-4.95 2.06 6.984 6.984 0 01-4.95-2.06A7.047 7.047 0 017 12.5zm7-3.125a3.121 3.121 0 01-3.111 3.125c-.345 0-.676-.059-.987-.161-.268-.088-.579.078-.569.361.015.337.063.674.156 1.01a4.667 4.667 0 005.716 3.316c2.49-.669 3.967-3.242 3.301-5.742a4.67 4.67 0 00-4.307-3.472c-.282-.01-.447.298-.36.572.102.312.16.644.16.991z" fill="#fff"/></g><defs><clipPath id="clip0_119_162"><path fill="#fff" d="M0 0h28v25H0z"/></clipPath></defs></svg>