<svg width="19" height="21" viewBox="0 0 19 21" fill="none" xmlns="http://www.w3.org/2000/svg"><g clip-path="url(#clip0_294_33)"><path d="M1.357 0c.75 0 1.357.587 1.357 1.313v.656l2.927-.706a7.194 7.194 0 014.813.513 7.174 7.174 0 006.239 0l.407-.197c.874-.426 1.9.189 1.9 1.132v11.472a1.32 1.32 0 01-.882 1.23l-1.472.534a7.78 7.78 0 01-6.01-.304 7.747 7.747 0 00-5.195-.55l-2.727.657v3.938c0 .726-.606 1.312-1.357 1.312C.607 21 0 20.413 0 19.687V1.313C0 .588.606 0 1.357 0zm1.357 7.674l2.715-.57V9.79l-2.715.57v2.683l2.07-.5c.216-.054.428-.099.645-.136v-2.62l1.65-.345a4.228 4.228 0 011.064-.086V6.73a7.16 7.16 0 011.713.262l1.001.283v2.736L9.09 9.507a4.377 4.377 0 00-.946-.155v2.928c.924.078 1.836.275 2.714.59v-2.862l.963.275a8.456 8.456 0 001.751.303V7.953a5.77 5.77 0 01-.983-.185l-1.73-.492V4.733a9.925 9.925 0 01-1.621-.615 4.493 4.493 0 00-1.094-.361v2.97a6.89 6.89 0 00-1.641.147l-1.073.23V4.02l-2.715.656v2.998zm10.857 6.095a4.93 4.93 0 002.121-.279l.594-.213v-2.941l-.335.074a8.433 8.433 0 01-2.38.184v3.175zm2.715-6.128V4.737a9.98 9.98 0 01-2.715.374v2.846c.59.057 1.188.02 1.769-.107l.946-.213v.004z" fill="#fff"/></g><defs><clipPath id="clip0_294_33"><path fill="#fff" d="M0 0h19v21H0z"/></clipPath></defs></svg>