<svg width="34" height="27" viewBox="0 0 34 27" fill="none" xmlns="http://www.w3.org/2000/svg"><path d="M17.18 4.493l-5.142 4.134a2.039 2.039 0 00-.372 2.8 2.072 2.072 0 002.938.412l5.275-4.071a.858.858 0 011.196.147.838.838 0 01-.15 1.187l-1.11.854 7.385 6.75V6.75h-.037l-.207-.132-3.857-2.452a5.108 5.108 0 00-5.918.327zm1.212 6.56l-2.747 2.12a3.78 3.78 0 01-5.355-.749 3.72 3.72 0 01.675-5.104l4.42-3.55a5.052 5.052 0 00-1.955-.39 5.054 5.054 0 00-2.805.839L6.8 6.75v11.813h1.498l4.856 4.398a2.56 2.56 0 003.602-.164c.292-.322.488-.696.59-1.086l.902.822a2.565 2.565 0 003.602-.152c.24-.259.415-.56.526-.87a2.56 2.56 0 003.3-.396 2.52 2.52 0 00-.155-3.575l-7.13-6.487zM.85 6.75a.85.85 0 00-.85.844v10.968c0 .934.76 1.688 1.7 1.688h1.7c.94 0 1.7-.754 1.7-1.688V6.75H.85zm1.7 10.125c.225 0 .442.089.601.247a.84.84 0 01-.601 1.44.853.853 0 01-.601-.247.84.84 0 01.601-1.44zM28.9 6.75v11.813c0 .933.76 1.687 1.7 1.687h1.7c.94 0 1.7-.754 1.7-1.688V7.595a.85.85 0 00-.85-.844H28.9zm1.7 10.969a.84.84 0 01.249-.597.853.853 0 011.202 0 .84.84 0 01-.601 1.44.853.853 0 01-.601-.247.84.84 0 01-.249-.596z" fill="#fff"/></svg>