<svg width="30" height="30" viewBox="0 0 30 30" fill="none" xmlns="http://www.w3.org/2000/svg"><path d="M13.377 27.486L2.789 17.602a9.043 9.043 0 01-.697-.727h5.097c1.325 0 2.52-.797 3.03-2.021l.615-1.477 2.889 6.416c.222.498.709.82 1.254.826a1.421 1.421 0 001.289-.78l2.484-4.974.1.2a3.284 3.284 0 002.935 1.816h6.123a9.059 9.059 0 01-.697.726l-10.588 9.88a2.378 2.378 0 01-3.246 0zm16.137-13.424h-7.735c-.175 0-.34-.1-.422-.257l-1.359-2.713a1.416 1.416 0 00-1.26-.78c-.533 0-1.02.3-1.26.78l-2.425 4.851-2.989-6.673a1.4 1.4 0 00-1.3-.827 1.412 1.412 0 00-1.278.868l-1.863 4.47a.466.466 0 01-.434.287l-6.252-.005a1.45 1.45 0 00-.427.064A8.723 8.723 0 010 11.186v-.34a8.374 8.374 0 0114.297-5.924l.703.703.703-.703A8.377 8.377 0 0130 10.846v.34a8.65 8.65 0 01-.486 2.877z" fill="#fff"/></svg>