<svg width="29" height="29" viewBox="0 0 29 29" fill="none" xmlns="http://www.w3.org/2000/svg"><path d="M5.712 29h17.576c.727 0 1.318-.59 1.318-1.318v-14.94c0-.728-.59-1.318-1.319-1.318H21.97V7.47C21.97 3.35 18.62 0 14.5 0c-4.118 0-7.47 3.35-7.47 7.47v3.954H5.713c-.728 0-1.318.59-1.318 1.318v14.94c0 .728.59 1.318 1.318 1.318zm10.106-8.35v1.76a1.318 1.318 0 01-2.637 0v-1.76a2.195 2.195 0 011.319-3.953 2.195 2.195 0 011.318 3.953zM9.666 7.47A4.839 4.839 0 0114.5 2.636a4.839 4.839 0 014.833 4.834v3.954H9.666V7.47z" fill="#fff"/></svg>