<svg width="21" height="21" viewBox="0 0 21 21" fill="none" xmlns="http://www.w3.org/2000/svg"><g clip-path="url(#clip0_294_69)"><path d="M7.219.984A.982.982 0 006.234 0a.982.982 0 00-.984.984v1.641A2.627 2.627 0 002.625 5.25H.985A.982.982 0 000 6.234c0 .546.439.985.984.985h1.641v2.297H.985A.982.982 0 000 10.5c0 .546.439.984.984.984h1.641v2.297H.985a.982.982 0 00-.985.985c0 .545.439.984.984.984h1.641a2.627 2.627 0 002.625 2.625v1.64c0 .546.439.985.984.985a.982.982 0 00.985-.984v-1.641h2.297v1.64c0 .546.438.985.984.985a.982.982 0 00.984-.984v-1.641h2.297v1.64c0 .546.44.985.985.985a.982.982 0 00.984-.984v-1.641a2.627 2.627 0 002.625-2.625h1.64a.982.982 0 00.985-.984.982.982 0 00-.984-.985h-1.641v-2.297h1.64A.982.982 0 0021 10.5a.982.982 0 00-.984-.984h-1.641V7.219h1.64A.982.982 0 0021 6.234a.982.982 0 00-.984-.984h-1.641a2.627 2.627 0 00-2.625-2.625V.985A.982.982 0 0014.766 0a.982.982 0 00-.985.984v1.641h-2.297V.985A.982.982 0 0010.5 0a.982.982 0 00-.984.984v1.641H7.219V.985zM6.562 5.25h7.875c.727 0 1.313.587 1.313 1.313v7.875c0 .726-.586 1.312-1.313 1.312H6.564a1.311 1.311 0 01-1.313-1.313V6.564c0-.726.587-1.313 1.313-1.313zm7.875 1.313H6.564v7.875h7.875V6.561z" fill="#fff"/></g><defs><clipPath id="clip0_294_69"><path fill="#fff" d="M0 0h21v21H0z"/></clipPath></defs></svg>