<svg width="59" height="58" viewBox="0 0 59 58" fill="none" xmlns="http://www.w3.org/2000/svg"><g clip-path="url(#clip0_150_208)"><path d="M14.914 7.214A7.221 7.221 0 0122.128 0h18.036v14.429a3.603 3.603 0 003.607 3.607H58.2V50.5a7.22 7.22 0 01-7.215 7.214H22.128a7.221 7.221 0 01-7.214-7.214V37.875h19.625l-4.396 4.396a2.694 2.694 0 000 3.822c1.06 1.048 2.773 1.06 3.821 0l9.018-9.018a2.694 2.694 0 000-3.822l-9.018-9.018a2.694 2.694 0 00-3.821 0c-1.049 1.06-1.06 2.774 0 3.822l4.396 4.396-19.625.011V7.214zm0 25.25v5.411H3.19A2.699 2.699 0 01.485 35.17c0-1.5 1.206-2.706 2.706-2.706h11.723zM58.2 14.43H43.77V0L58.2 14.429z" fill="url(#paint0_linear_150_208)"/></g><defs><linearGradient id="paint0_linear_150_208" x1="58.2" y1="0" x2="14.91" y2="54.83" gradientUnits="userSpaceOnUse"><stop stop-color="#042924"/><stop offset="1" stop-color="#0F5B51"/></linearGradient><clipPath id="clip0_150_208"><path fill="#fff" transform="translate(.485)" d="M0 0h57.71v57.71H0z"/></clipPath></defs></svg>