<svg width="15" height="18" viewBox="0 0 15 18" fill="none" xmlns="http://www.w3.org/2000/svg"><g clip-path="url(#clip0_294_79)"><path d="M7.5 9a4.185 4.185 0 003.03-1.318A4.617 4.617 0 0011.787 4.5a4.617 4.617 0 00-1.255-3.182A4.185 4.185 0 007.5 0a4.185 4.185 0 00-3.03 1.318A4.617 4.617 0 003.214 4.5c0 1.193.452 2.338 1.256 3.182A4.185 4.185 0 007.5 9zm-1.53 1.688c-3.298 0-5.97 2.805-5.97 6.268C0 17.532.445 18 .994 18h13.012c.549 0 .994-.468.994-1.044 0-3.463-2.672-6.268-5.97-6.268H5.97z" fill="#fff"/></g><defs><clipPath id="clip0_294_79"><path fill="#fff" d="M0 0h15v18H0z"/></clipPath></defs></svg>